<svg viewBox="0 0 32 32" xmlns="http://www.w3.org/2000/svg">
  <path d="M28 12.9999H26.9538C26.7025 10.2685 25.4398 7.72952 23.4134 5.88094C21.3869 4.03236 18.7429 3.00757 16 3.00757C13.2571 3.00757 10.6131 4.03236 8.58664 5.88094C6.5602 7.72952 5.29752 10.2685 5.04625 12.9999H4C3.73478 12.9999 3.48043 13.1053 3.29289 13.2928C3.10536 13.4803 3 13.7347 3 13.9999C3.00439 16.3781 3.65887 18.7098 4.89264 20.7428C6.12641 22.7759 7.89253 24.433 10 25.5349V25.9999C10 26.5304 10.2107 27.0391 10.5858 27.4141C10.9609 27.7892 11.4696 27.9999 12 27.9999H20C20.5304 27.9999 21.0391 27.7892 21.4142 27.4141C21.7893 27.0391 22 26.5304 22 25.9999V25.5349C24.1075 24.433 25.8736 22.7759 27.1074 20.7428C28.3411 18.7098 28.9956 16.3781 29 13.9999C29 13.7347 28.8946 13.4803 28.7071 13.2928C28.5196 13.1053 28.2652 12.9999 28 12.9999ZM24.9425 12.9999H18.515C19.7274 11.181 21.5616 9.86681 23.6737 9.30367C24.3643 10.427 24.7976 11.6893 24.9425 12.9999ZM21.685 7.02867C21.9142 7.21617 22.1338 7.41408 22.3438 7.62242C19.6817 8.55886 17.4819 10.4834 16.2 12.9974H12.5125C13.1375 11.2455 14.2882 9.72917 15.8073 8.65572C17.3264 7.58227 19.1399 7.004 21 6.99992C21.2288 6.99992 21.4575 7.01117 21.685 7.02867ZM16 4.99992C16.8025 5.00045 17.6012 5.10849 18.375 5.32117C16.4905 5.78863 14.7626 6.74459 13.3653 8.09269C11.9681 9.44079 10.9509 11.1334 10.4163 12.9999H7.0575C7.30556 10.801 8.35415 8.77025 10.0034 7.29484C11.6526 5.81944 13.7871 5.00255 16 4.99992ZM20.5825 23.9999C20.4081 24.0801 20.2604 24.2087 20.1571 24.3705C20.0538 24.5323 19.9993 24.7205 20 24.9124V25.9999H12V24.9124C12.0007 24.7205 11.9462 24.5323 11.8429 24.3705C11.7396 24.2087 11.5919 24.0801 11.4175 23.9999C9.6589 23.1907 8.1441 21.9331 7.02513 20.3534C5.90617 18.7737 5.22242 16.9274 5.0425 14.9999H26.9538C26.7742 16.927 26.091 18.773 24.9727 20.3527C23.8544 21.9323 22.3404 23.1902 20.5825 23.9999Z" />
</svg>
