<svg viewBox="0 0 32 32" xmlns="http://www.w3.org/2000/svg">
  <path d="M21.4999 9.49995C21.4999 9.89552 21.3826 10.2822 21.1629 10.6111C20.9431 10.94 20.6308 11.1963 20.2653 11.3477C19.8999 11.4991 19.4977 11.5387 19.1098 11.4615C18.7218 11.3844 18.3654 11.1939 18.0857 10.9142C17.806 10.6345 17.6155 10.2781 17.5384 9.89013C17.4612 9.50217 17.5008 9.10004 17.6522 8.73459C17.8036 8.36914 18.0599 8.05678 18.3888 7.83702C18.7177 7.61725 19.1044 7.49995 19.4999 7.49995C20.0304 7.49995 20.5391 7.71067 20.9142 8.08574C21.2892 8.46081 21.4999 8.96952 21.4999 9.49995ZM25.2962 21.2012C21.9087 24.5812 16.6899 26.0625 9.73244 25.625C9.92161 26.915 10.1716 28.2645 10.4824 29.6737C10.5245 29.8662 10.5283 30.0651 10.4936 30.259C10.4588 30.4529 10.3862 30.6381 10.2799 30.804C10.1736 30.9698 10.0356 31.1131 9.87391 31.2257C9.7122 31.3382 9.52991 31.4178 9.33744 31.46C9.14498 31.5021 8.9461 31.5058 8.75217 31.4711C8.55824 31.4363 8.37305 31.3637 8.20718 31.2574C8.04131 31.1511 7.89801 31.0131 7.78546 30.8514C7.6729 30.6897 7.5933 30.5074 7.55119 30.315C7.17119 28.5733 6.87744 26.91 6.66994 25.325C5.08661 25.1175 3.42453 24.8233 1.68369 24.4425C1.29499 24.3574 0.955979 24.1215 0.74125 23.7865C0.526521 23.4515 0.45366 23.0449 0.538695 22.6562C0.62373 22.2675 0.859695 21.9285 1.19468 21.7138C1.52967 21.499 1.93624 21.4262 2.32494 21.5112C3.73244 21.8195 5.08078 22.0695 6.36994 22.2612C5.93994 15.3062 7.42119 10.09 10.8024 6.7012C16.4562 1.03245 25.3662 2.61245 27.0949 2.9862C27.5649 3.08881 27.9955 3.32415 28.3356 3.66428C28.6757 4.0044 28.9111 4.43501 29.0137 4.90495C29.3874 6.6337 30.9674 15.5437 25.2974 21.2L25.2962 21.2012ZM21.9099 20.1475C19.4625 19.5769 17.2251 18.3289 15.4537 16.5462C13.6716 14.7739 12.4237 12.5363 11.8524 10.0887C9.79119 12.9637 8.96745 17.1525 9.38995 22.6062C14.8437 23.03 19.0337 22.2075 21.9112 20.1462L21.9099 20.1475ZM26.1449 5.85495C24.2718 5.50382 22.3592 5.41297 20.4612 5.58495C18.1274 5.8112 16.1387 6.45995 14.5174 7.52745C14.6469 10.1258 15.7373 12.5834 17.5769 14.423C19.4165 16.2626 21.8741 17.353 24.4724 17.4825C25.5362 15.8575 26.1887 13.8725 26.4149 11.5387C26.5869 9.64072 26.4961 7.72809 26.1449 5.85495Z" />
</svg>
