<svg viewBox="0 0 32 32" xmlns="http://www.w3.org/2000/svg">
  <path d="M8.5 11V5.00002C8.5 4.60219 8.65804 4.22066 8.93934 3.93936C9.22064 3.65805 9.60218 3.50002 10 3.50002C10.3978 3.50002 10.7794 3.65805 11.0607 3.93936C11.342 4.22066 11.5 4.60219 11.5 5.00002V11C11.5 11.3978 11.342 11.7794 11.0607 12.0607C10.7794 12.342 10.3978 12.5 10 12.5C9.60218 12.5 9.22064 12.342 8.93934 12.0607C8.65804 11.7794 8.5 11.3978 8.5 11ZM27.5 5.00002V28C27.5 28.3978 27.342 28.7794 27.0607 29.0607C26.7794 29.342 26.3978 29.5 26 29.5C25.6022 29.5 25.2206 29.342 24.9393 29.0607C24.658 28.7794 24.5 28.3978 24.5 28V22.5H19C18.6022 22.5 18.2206 22.342 17.9393 22.0607C17.658 21.7794 17.5 21.3978 17.5 21C17.5469 18.5651 17.854 16.1421 18.4163 13.7725C19.6775 8.55252 22.095 5.04127 25.4088 3.62502C25.6366 3.52728 25.8852 3.48756 26.1322 3.50941C26.3792 3.53126 26.6169 3.614 26.8241 3.75022C27.0313 3.88644 27.2015 4.07191 27.3194 4.29001C27.4374 4.50811 27.4994 4.75206 27.5 5.00002ZM24.5 7.86502C22.825 9.62502 21.875 12.25 21.3463 14.4225C20.9506 16.0913 20.6906 17.7893 20.5688 19.5H24.5V7.86502ZM16 4.87502C15.9668 4.47719 15.777 4.10883 15.4723 3.85097C15.1675 3.5931 14.7728 3.46686 14.375 3.50002C13.9772 3.53317 13.6088 3.723 13.351 4.02774C13.0931 4.33249 12.9668 4.72719 13 5.12502L13.5 11.0575C13.5 11.9858 13.1313 12.876 12.4749 13.5324C11.8185 14.1888 10.9283 14.5575 10 14.5575C9.07174 14.5575 8.1815 14.1888 7.52513 13.5324C6.86875 12.876 6.5 11.9858 6.5 11.0575L7 5.12502C7.01642 4.92803 6.99387 4.72974 6.93365 4.54147C6.87344 4.3532 6.77673 4.17864 6.64905 4.02774C6.52137 3.87685 6.36522 3.75258 6.18951 3.66203C6.0138 3.57148 5.82198 3.51643 5.625 3.50002C5.42802 3.4836 5.22973 3.50614 5.04146 3.56636C4.85319 3.62658 4.67862 3.72329 4.52773 3.85097C4.37683 3.97865 4.25256 4.1348 4.16202 4.31051C4.07147 4.48621 4.01642 4.67803 4 4.87502L3.5 10.875C3.5 10.9175 3.5 10.9588 3.5 11C3.5024 12.4624 3.99692 13.8814 4.90392 15.0285C5.81092 16.1757 7.07761 16.9841 8.5 17.3238V28C8.5 28.3978 8.65804 28.7794 8.93934 29.0607C9.22064 29.342 9.60218 29.5 10 29.5C10.3978 29.5 10.7794 29.342 11.0607 29.0607C11.342 28.7794 11.5 28.3978 11.5 28V17.3238C12.9224 16.9841 14.1891 16.1757 15.0961 15.0285C16.0031 13.8814 16.4976 12.4624 16.5 11C16.5 10.9588 16.5 10.9175 16.5 10.875L16 4.87502Z" />
</svg>
