<svg viewBox="0 0 32 32" xmlns="http://www.w3.org/2000/svg">
  <path d="M25.75 3.33625C25.656 3.23027 25.5404 3.14548 25.4111 3.08751C25.2819 3.02954 25.1417 2.99971 25 3H7.00001C6.8581 2.99995 6.71781 3.03011 6.58846 3.08846C6.45911 3.14681 6.34366 3.23202 6.24978 3.33844C6.1559 3.44485 6.08574 3.57002 6.04397 3.70564C6.0022 3.84126 5.98977 3.98421 6.00751 4.125L8.90126 28.25C8.96219 28.7336 9.19766 29.1784 9.56342 29.5006C9.92918 29.8229 10.4 30.0005 10.8875 30H21.1125C21.6017 30.0001 22.074 29.821 22.44 29.4964C22.806 29.1719 23.0404 28.7244 23.0988 28.2388L25.9925 4.125C26.0105 3.98385 25.9982 3.84047 25.9564 3.70445C25.9146 3.56843 25.8442 3.4429 25.75 3.33625ZM23.875 5L23.5125 8H8.48751L8.12501 5H23.875Z" />
</svg>
