<svg viewBox="0 0 32 32" xmlns="http://www.w3.org/2000/svg">
  <path d="M29.9425 7.87501C29.8809 7.61902 29.7691 7.37781 29.6135 7.16538C29.4579 6.95295 29.2617 6.77352 29.0363 6.63751C25.104 4.25876 20.5958 3.00128 16 3.00128C11.4042 3.00128 6.89603 4.25876 2.96376 6.63751C2.73895 6.77385 2.54323 6.95318 2.3878 7.16523C2.23237 7.37729 2.12027 7.61791 2.05793 7.87333C1.99558 8.12875 1.98421 8.39396 2.02446 8.65378C2.06471 8.9136 2.1558 9.16293 2.29251 9.38751L14.2925 29.0463C14.4708 29.3402 14.7218 29.5831 15.0213 29.7518C15.3208 29.9204 15.6588 30.009 16.0025 30.009C16.3462 30.009 16.6842 29.9204 16.9837 29.7518C17.2832 29.5831 17.5342 29.3402 17.7125 29.0463L29.7125 9.38751C29.8494 9.16331 29.9402 8.91409 29.9797 8.6544C30.0192 8.39472 30.0065 8.12976 29.9425 7.87501ZM7.94876 14.8125C8.27368 14.5063 8.66285 14.2765 9.08789 14.1398C9.51293 14.0031 9.96312 13.963 10.4056 14.0225C10.8481 14.0819 11.2718 14.2394 11.6457 14.4833C12.0196 14.7273 12.3343 15.0517 12.567 15.4328C12.7996 15.8139 12.9442 16.2421 12.9903 16.6862C13.0363 17.1303 12.9827 17.579 12.8333 17.9998C12.6839 18.4205 12.4424 18.8026 12.1266 19.1181C11.8107 19.4337 11.4284 19.6748 11.0075 19.8238L7.94876 14.8125ZM18.9388 23.1813C18.438 22.7091 18.1148 22.079 18.0234 21.3968C17.9321 20.7146 18.0781 20.0217 18.437 19.4344C18.7958 18.8471 19.3458 18.401 19.9945 18.171C20.6432 17.941 21.3513 17.9411 22 18.1713L18.9388 23.1813ZM23.055 16.44C21.9435 15.9355 20.6859 15.855 19.5191 16.2137C18.3524 16.5724 17.3572 17.3455 16.7211 18.3873C16.085 19.4291 15.8519 20.6676 16.0659 21.8693C16.2798 23.0711 16.9259 24.153 17.8825 24.9113L16 28L12.0625 21.5538C12.709 21.2625 13.286 20.837 13.7555 20.3056C14.2249 19.7742 14.576 19.1491 14.7854 18.4716C14.9947 17.7942 15.0576 17.08 14.9699 16.3764C14.8821 15.6728 14.6457 14.9959 14.2764 14.3907C13.907 13.7854 13.4132 13.2656 12.8276 12.8658C12.242 12.466 11.5781 12.1954 10.8799 12.0718C10.1817 11.9482 9.46521 11.9745 8.77796 12.149C8.09071 12.3234 7.44844 12.6421 6.89376 13.0838L6.10001 11.7825C9.0813 9.96268 12.5065 8.99986 15.9994 8.99986C19.4922 8.99986 22.9175 9.96268 25.8988 11.7825L23.055 16.44ZM26.9425 10.0738C23.6466 8.06356 19.8606 7.00011 16 7.00011C12.1394 7.00011 8.35344 8.06356 5.05751 10.0738L4.00001 8.34626C7.6203 6.15828 11.7699 5.00174 16 5.00174C20.2301 5.00174 24.3797 6.15828 28 8.34626L26.9425 10.0738Z" />
</svg>
