<svg width="16" height="16" viewBox="0 0 16 16" fill="none" xmlns="http://www.w3.org/2000/svg">
<rect width="16" height="16" fill="white"/>
<path d="M12.6681 8.70722C14.0787 7.22218 14.657 5.33628 12.9502 3.55515C11.6901 2.23867 10.0257 2.38899 8.82667 2.75797C8.07429 2.99775 7.37326 3.36822 6.75783 3.85125L2.08413 7.45906C2.04796 7.48298 2.02126 7.5181 2.00844 7.55867C1.99562 7.59924 1.99745 7.64284 2.01361 7.68227C2.40387 8.36557 3.29723 8.44301 4.08245 7.83715L5.15917 7.00353L2.92577 10.7571C2.86934 10.8482 2.88816 10.9484 2.96339 10.9758C3.61225 11.2172 4.48211 10.7844 4.9617 9.95082L5.20619 9.53173C5.20619 9.53173 5.27203 11.4586 4.64197 12.561C4.58555 12.6567 4.61375 12.7614 4.69369 12.7797C4.89776 12.8109 5.10669 12.7914 5.30081 12.7228C5.49493 12.6543 5.66787 12.539 5.80335 12.3879C5.74319 12.5676 5.72972 12.7589 5.76417 12.9449C5.79862 13.1308 5.87991 13.3056 6.00082 13.4539C6.04313 13.5176 6.13717 13.5131 6.203 13.4539C6.93184 12.672 7.77263 11.9955 8.69971 11.445C10.1521 10.723 11.4888 9.80081 12.6681 8.70722ZM9.47083 9.45429C8.94892 9.80505 6.61677 11.0851 6.61677 11.0851V10.5567C6.53061 9.99767 6.54973 9.42816 6.67319 8.87576C6.79544 8.26535 7.05874 7.70504 7.51013 7.55016C7.72171 7.47272 7.82516 7.5775 8.13078 8.09225C8.29065 8.37012 9.68711 7.43628 9.87989 7.32696C10.4159 7.03997 10.8203 7.32696 10.778 7.92826C10.6933 8.70722 9.94102 9.13542 9.47083 9.45429Z" fill="#272626"/>
</svg>
