<svg width="32" height="32" viewBox="0 0 32 32" fill="none" xmlns="http://www.w3.org/2000/svg">
<rect width="32" height="32" fill="white"/>
<path d="M25.3362 17.4144C28.1574 14.4444 29.3141 10.6726 25.9005 7.11031C23.3803 4.47733 20.0513 4.77799 17.6533 5.51595C16.1486 5.99551 14.7465 6.73643 13.5157 7.70249L4.16827 14.9181C4.09591 14.966 4.04252 15.0362 4.01689 15.1173C3.99125 15.1985 3.99489 15.2857 4.02722 15.3645C4.80773 16.7311 6.59445 16.886 8.16489 15.6743L10.3183 14.0071L5.85153 21.5142C5.73869 21.6964 5.77632 21.8969 5.92678 21.9515C7.2245 22.4344 8.96421 21.5689 9.9234 19.9016L10.4124 19.0635C10.4124 19.0635 10.5441 22.9172 9.28395 25.122C9.1711 25.3133 9.22751 25.5229 9.38737 25.5593C9.79552 25.6219 10.2134 25.5827 10.6016 25.4457C10.9899 25.3086 11.3357 25.0781 11.6067 24.7758C11.4864 25.1352 11.4594 25.5178 11.5283 25.8897C11.5972 26.2616 11.7598 26.6113 12.0016 26.9077C12.0863 27.0353 12.2743 27.0262 12.406 26.9077C13.8637 25.3441 15.5453 23.9911 17.3994 22.8899C20.3043 21.446 22.9777 19.6016 25.3362 17.4144ZM18.9417 18.9086C17.8978 19.6101 13.2335 22.1702 13.2335 22.1702V21.1133C13.0612 19.9953 13.0995 18.8563 13.3464 17.7515C13.5909 16.5307 14.1175 15.4101 15.0203 15.1003C15.4434 14.9454 15.6503 15.155 16.2616 16.1845C16.5813 16.7402 19.3742 14.8726 19.7598 14.6539C20.8318 14.0799 21.6405 14.6539 21.5559 15.8565C21.3866 17.4144 19.882 18.2708 18.9417 18.9086Z" fill="#272626"/>
</svg>
