<svg width="64" height="64" viewBox="0 0 64 64" fill="none" xmlns="http://www.w3.org/2000/svg">
<rect width="64" height="64" fill="white"/>
<path d="M50.6725 34.8289C56.3148 28.8887 58.6281 21.3451 51.8009 14.2206C46.7605 8.95467 40.1026 9.55597 35.3067 11.0319C32.2972 11.991 29.493 13.4729 27.0313 15.405L8.33654 29.8363C8.19183 29.9319 8.08505 30.0724 8.03377 30.2347C7.9825 30.397 7.98979 30.5713 8.05444 30.7291C9.61547 33.4623 13.1889 33.772 16.3298 31.3486L20.6367 28.0141L11.7031 43.0284C11.4774 43.3929 11.5526 43.7937 11.8536 43.9031C14.449 44.8688 17.9284 43.1378 19.8468 39.8033L20.8248 38.1269C20.8248 38.1269 21.0881 45.8345 18.5679 50.244C18.3422 50.6267 18.455 51.0458 18.7747 51.1187C19.591 51.2437 20.4268 51.1655 21.2032 50.8914C21.9797 50.6172 22.6715 50.1562 23.2134 49.5516C22.9727 50.2704 22.9189 51.0357 23.0567 51.7795C23.1945 52.5232 23.5196 53.2226 24.0033 53.8154C24.1725 54.0705 24.5487 54.0523 24.812 53.8154C27.7273 50.6882 31.0905 47.9821 34.7988 45.7799C40.6085 42.8919 45.9553 39.2032 50.6725 34.8289ZM37.8833 37.8172C35.7957 39.2202 26.4671 44.3404 26.4671 44.3404V42.2267C26.1225 39.9907 26.1989 37.7127 26.6927 35.503C27.1817 33.0614 28.235 30.8202 30.0405 30.2006C30.8868 29.8909 31.3006 30.31 32.5231 32.369C33.1626 33.4805 38.7485 29.7451 39.5196 29.3078C41.6636 28.1599 43.2811 29.3078 43.1118 31.713C42.7733 34.8289 39.7641 36.5417 37.8833 37.8172Z" fill="#272626"/>
</svg>
