<svg width="104" height="44" viewBox="0 0 104 44" fill="none" xmlns="http://www.w3.org/2000/svg">
<path d="M38.5339 25.0946C40.3689 25.0946 41.9142 25.7823 43.0732 27.1577C44.2322 28.5332 44.6185 30.1051 44.1356 31.8736C43.8459 33.0525 43.1698 34.035 42.0108 34.8209C40.9484 35.6069 39.6929 35.9016 38.4373 35.9016C37.2783 35.9016 36.2159 35.6069 35.2501 35.0174C34.2843 34.428 33.6082 33.642 33.1253 32.7578C32.8356 32.2665 32.9321 31.7753 33.2219 31.2841C33.6082 30.7928 34.0911 30.5964 34.6706 30.5964C35.3467 30.5964 35.9262 30.8911 36.2159 31.5788C36.6022 32.3648 37.3749 32.856 38.3407 32.856H38.4373C39.1134 32.856 39.7894 32.5613 40.2723 32.07C40.7553 31.5788 40.9484 30.9893 40.8518 30.3016C40.7552 29.7121 40.4655 29.3192 39.9826 28.9262C39.4997 28.5332 39.0168 28.4349 38.3407 28.4349C36.6022 28.4349 35.2501 27.7472 34.1877 26.47C33.1253 25.1928 32.8356 23.7191 33.3185 22.1472C33.6082 21.0665 34.2843 20.2805 35.2501 19.5928C36.2159 18.9051 37.2783 18.6103 38.5339 18.6103C40.6587 18.6103 42.204 19.4945 43.1698 21.1647C43.4595 21.656 43.4595 22.2454 43.1698 22.7367C42.8801 23.2279 42.3006 23.5226 41.7211 23.5226C41.045 23.5226 40.5621 23.2279 40.1758 22.6384C39.7894 22.0489 39.3065 21.7542 38.5339 21.7542C38.051 21.7542 37.6646 21.8524 37.2783 22.1472C36.892 22.4419 36.6988 22.7367 36.6022 23.1296C36.5057 23.7191 36.6022 24.2104 36.9886 24.6033C37.4715 24.8981 37.9544 25.0946 38.5339 25.0946Z" fill="#A9A9A9"/>
<path d="M32.7258 25.6844C32.7258 26.2739 32.5327 26.7651 32.2429 27.2563C31.6635 28.3371 30.7942 28.8283 29.5387 28.8283H21.8121C21.8121 29.909 22.1984 30.7932 22.9711 31.5792C23.7438 32.3651 24.613 32.6599 25.6754 32.6599H25.772C27.0275 32.6599 28.0899 32.1687 28.8626 31.0879C29.3455 30.4985 29.925 30.302 30.601 30.5967C31.084 30.7932 31.4703 31.0879 31.5669 31.5792C31.76 32.0704 31.6634 32.5616 31.3737 32.9546C30.0216 34.8213 28.0899 35.8038 25.772 35.8038H25.6754C23.7438 35.8038 22.1984 35.116 20.8463 33.7406C19.4942 32.3652 18.8181 30.7932 18.8181 28.8283V25.6844C18.8181 23.7195 19.4942 22.1475 20.8463 20.7721C22.1984 19.3967 23.8403 18.7089 25.772 18.7089H25.8685C27.8002 18.7089 29.4421 19.3967 30.7942 20.7721C31.4703 21.4598 31.9532 22.2458 32.2429 23.0318C32.4361 23.523 32.5327 24.0142 32.6293 24.5055C32.7258 24.8984 32.7258 25.0949 32.7258 25.0949C32.7258 25.0949 32.7258 25.1932 32.7258 25.6844ZM21.9087 25.6844H29.6352C29.6352 24.6037 29.2489 23.7195 28.4763 22.9335C27.7036 22.1475 26.8344 21.7546 25.772 21.7546H25.6754C24.613 21.7546 23.7438 22.1475 22.9711 22.9335C22.1984 23.7195 21.9087 24.6037 21.9087 25.6844Z" fill="#A9A9A9"/>
<path d="M65.373 11.9286C65.7593 11.9286 66.1456 12.1251 66.4354 12.4199C66.7251 12.7146 66.9183 13.1076 66.9183 13.5006V34.2305C66.9183 34.6235 66.7251 35.0165 66.4354 35.4095C66.1456 35.7042 65.7593 35.9007 65.373 35.9007C64.6003 35.9007 64.0208 35.5077 63.9242 34.7217C62.7653 35.5077 61.5097 35.9007 60.061 35.9007H59.9644C58.0328 35.9007 56.3909 35.213 55.0387 33.8375C53.6866 32.4621 53.0105 30.7919 53.0105 28.827V25.5848C53.0105 23.6199 53.6866 21.9497 55.0387 20.5743C56.3909 19.1988 58.0328 18.5111 59.9644 18.5111H60.061C61.4131 18.5111 62.6687 18.9041 63.8277 19.6901V13.5006C63.8277 13.1076 64.0208 12.7146 64.3106 12.4199C64.5037 12.1251 64.8901 11.9286 65.373 11.9286ZM63.8277 25.5848C63.8277 24.5041 63.4413 23.6199 62.6687 22.834C61.896 22.048 61.0268 21.655 59.9644 21.655H59.8678C58.8054 21.655 57.9362 22.048 57.1635 22.834C56.3909 23.6199 56.0045 24.5041 56.0045 25.5848V28.827C56.0045 29.9077 56.3909 30.7919 57.1635 31.5779C57.9362 32.3638 58.8054 32.6586 59.8678 32.6586H59.9644C61.0268 32.6586 61.896 32.2656 62.6687 31.5779C63.4413 30.7919 63.8277 29.9077 63.8277 28.827V25.5848Z" fill="#A9A9A9"/>
<path d="M81.5052 25.6844C81.5052 26.2739 81.4087 26.7651 81.1189 27.2563C80.5394 28.3371 79.6702 28.8283 78.4146 28.8283H70.6881C70.6881 29.909 71.0744 30.7932 71.8471 31.5792C72.6197 32.3651 73.489 32.6599 74.5514 32.6599H74.6479C75.9035 32.6599 76.9659 32.1687 77.7385 31.0879C78.2215 30.4985 78.801 30.302 79.477 30.5967C79.9599 30.7932 80.3463 31.0879 80.4428 31.5792C80.636 32.0704 80.5394 32.5616 80.2497 32.9546C78.8975 34.8213 76.9659 35.8038 74.6479 35.8038H74.5514C72.6197 35.8038 71.0744 35.116 69.7223 33.7406C68.3701 32.3652 67.6941 30.7932 67.6941 28.8283V25.6844C67.6941 23.7195 68.3701 22.1475 69.7223 20.7721C71.0744 19.3967 72.7163 18.7089 74.6479 18.7089H74.7445C76.6762 18.7089 78.318 19.3967 79.6702 20.7721C80.3462 21.4598 80.8292 22.2458 81.1189 23.0318C81.3121 23.523 81.4087 24.0142 81.5052 24.5055C81.6018 24.8984 81.6018 25.0949 81.6018 25.0949C81.6018 25.0949 81.5052 25.1932 81.5052 25.6844ZM70.5915 25.6844H78.318C78.318 24.6037 77.9317 23.7195 77.1591 22.9335C76.483 22.1475 75.6138 21.7546 74.5514 21.7546H74.4548C73.3924 21.7546 72.5231 22.1475 71.7505 22.9335C70.9778 23.7195 70.5915 24.6037 70.5915 25.6844Z" fill="#A9A9A9"/>
<path d="M94.4547 18.6104C94.841 18.6104 95.2273 18.8069 95.5171 19.1017C95.8068 19.3964 96 19.7894 96 20.1824V34.3298C96 34.7228 95.8068 35.1158 95.5171 35.5088C95.2273 35.8035 94.841 36 94.4547 36C93.682 36 93.1025 35.607 93.006 34.821C91.847 35.607 90.5914 36 89.1427 36H89.0461C87.1145 36 85.4726 35.3123 84.1205 33.9368C82.7683 32.5614 82.0922 30.8912 82.0922 28.9263V25.6841C82.0922 23.7192 82.7683 22.049 84.1205 20.6736C85.4726 19.2981 87.1145 18.6104 89.0461 18.6104H89.1427C90.4948 18.6104 91.847 19.0034 93.006 19.7894C93.1991 19.0034 93.682 18.6104 94.4547 18.6104ZM92.9094 25.5859C92.9094 24.5052 92.5231 23.621 91.7504 22.835C91.0743 22.1473 90.2051 21.7543 89.1427 21.7543H89.0461C87.9837 21.7543 87.1145 22.1473 86.3418 22.9333C85.5692 23.7192 85.1829 24.6034 85.1829 25.6841V28.9263C85.1829 30.007 85.5692 30.8912 86.3418 31.6772C87.1145 32.4631 87.9837 32.7579 89.0461 32.7579H89.1427C90.2051 32.7579 91.0743 32.3649 91.847 31.6772C92.6197 30.8912 93.006 30.007 93.006 28.9263V25.5859H92.9094Z" fill="#A9A9A9"/>
<path d="M50.5968 35.8054C51.6592 35.8054 52.5284 34.9212 52.5284 33.8404C52.5284 32.7597 51.6592 31.8755 50.5968 31.8755C49.5344 31.8755 48.6651 32.7597 48.6651 33.8404C48.6651 35.0194 49.5344 35.8054 50.5968 35.8054Z" fill="#A9A9A9"/>
<path d="M51.662 12.4199C51.9517 12.7146 52.1449 13.1076 52.1449 13.5006V27.648C52.1449 28.041 51.9517 28.434 51.662 28.7287C51.3722 29.0235 50.9859 29.22 50.5996 29.22C50.2132 29.22 49.8269 29.0235 49.5372 28.7287C49.2474 28.434 49.0543 28.041 49.0543 27.648V13.5988C49.0543 13.2058 49.2474 12.8128 49.5372 12.5181C49.8269 12.1251 50.1167 11.9286 50.5996 11.9286C50.9859 11.9286 51.3722 12.1251 51.662 12.4199Z" fill="#A9A9A9"/>
<path d="M15.4444 11.9298C16.5068 11.9298 17.3761 11.0456 17.3761 9.96492C17.3761 8.88422 16.5068 8 15.4444 8C14.3821 8 13.5128 8.88422 13.5128 9.96492C13.5128 11.0456 14.3821 11.9298 15.4444 11.9298Z" fill="#A9A9A9"/>
<path d="M22.7857 11.6331C22.6891 11.2401 22.3994 10.8471 22.013 10.6506C21.6267 10.4541 21.2404 10.3559 20.7575 10.5523C20.3712 10.6506 19.9848 10.9453 19.7917 11.3383L15.4455 19.7875L11.0993 11.4366C10.9062 11.0436 10.5198 10.7488 10.1335 10.6506C9.6506 10.4541 9.26427 10.4541 8.87794 10.7488C8.49162 10.9453 8.20187 11.2401 8.10529 11.6331C7.91213 12.1243 8.00871 12.5173 8.20187 12.9103L13.707 23.7173V34.1314C13.707 34.6227 13.9002 35.0156 14.1899 35.3104C14.4797 35.6051 14.9626 35.8016 15.3489 35.8016C15.8318 35.8016 16.2181 35.6051 16.5079 35.3104C16.7976 35.0156 16.9908 34.6227 16.9908 34.1314V23.7173L22.496 12.9103C22.8823 12.5173 22.8823 12.1243 22.7857 11.6331Z" fill="#A9A9A9"/>
</svg>
